<?xml version="1.0" encoding="utf-8"?>
<!-- Generator: Adobe Illustrator 27.5.0, SVG Export Plug-In . SVG Version: 6.00 Build 0)  -->
<svg version="1.1" id="_图层_2" xmlns="http://www.w3.org/2000/svg" xmlns:xlink="http://www.w3.org/1999/xlink" x="0px" y="0px"
	 viewBox="0 0 347 31.9" style="enable-background:new 0 0 347 31.9;" xml:space="preserve">
<style type="text/css">
	.st0{fill:#1BFE02;}
	.st1{fill:#0000FF;}
	.st2{enable-background:new    ;}
	.st3{fill:#4C4C4C;}
</style>
<g id="_图层_1-2">
	<ellipse transform="matrix(0.9848 -0.1738 0.1738 0.9848 -3.4109 8.1671)" class="st0" cx="44.9" cy="23.6" rx="4.4" ry="6.3"/>
	<ellipse transform="matrix(0.9182 -0.3962 0.3962 0.9182 -7.6197 14.3607)" class="st1" cx="31" cy="25.6" rx="4.2" ry="3.6"/>
	<g class="st2">
		<path class="st1" d="M60.2,21.9h2.6c-1.2,3.5-2.4,6.4-3.6,8.7h-2.9C57.7,27.9,59,25,60.2,21.9z M63.6,19.9h-2.8
			c-0.7-1.6-1.3-3.3-1.9-5.2h2.5C61.9,16.4,62.7,18.1,63.6,19.9z M75.5,12.8c-0.6,0.8-1.4,1.6-2.2,2.3h5.9c0.3,0,0.5,0,0.7,0.1
			c0.1,0.1,0.2,0.3,0.2,0.6c0,0.5-0.2,1.1-0.6,1.6c-0.6,1-1.4,2-2.4,3.1v0.4h3.2l-0.3,2h-3.1l-0.9,7.7h-4.3L71,28.7h2.5l0.8-5.8
			h-3.1l0.3-2h3l0.1-0.8c1-1,1.7-1.9,2.2-2.7c0.1-0.1,0.1-0.2,0.1-0.3c-0.1-0.1-0.2-0.1-0.4-0.1h-3.4l-0.5-1.5
			c-0.6,0.4-1.1,0.7-1.4,0.9l0.5-2.2h-3.8c-0.1,1.2-0.2,2.1-0.3,3h2.7c0.4,0,0.8,0.1,1,0.3c0.1,0.2,0.2,0.5,0.1,1.1
			c-0.4,3.3-1,7.3-1.7,12.1H66l-0.6-1.9h2.1c0.5-2.9,1-6,1.3-9.2c0-0.1,0-0.2,0-0.3c-0.1-0.1-0.1-0.1-0.2-0.1h-1.3
			c-0.4,2.1-0.9,4.1-1.5,6.1c-0.7,2.1-1.4,3.8-2.2,5.4h-2.8c2.2-4.3,3.6-8.3,4.1-12c0.3-1.5,0.4-3,0.6-4.4h-1.8l0.1-0.6h-2.4
			c-0.6-1.5-1.2-3.1-1.7-4.7h2.6c0.4,1.2,0.9,2.6,1.6,4.2l0.1-1h3c-0.4-1.3-0.7-2.6-0.9-3.7h2.5c0.3,1.3,0.6,2.6,1,3.7h2.7L72,13.3
			c1.5-1.2,2.4-2.8,2.8-4.8h2.5c-0.1,0.8-0.4,1.5-0.7,2.3h4.9l-0.3,2H75.5z"/>
		<path class="st1" d="M93.7,12.9c-1.2,3.3-2.8,6.5-4.8,9.9c1,2.7,2.1,5,3.1,6.9h-2.8l-1.7-4.3l-3.3,4.8H81c2.1-2.5,3.9-5,5.6-7.6
			c-0.9-2.7-1.7-5.4-2.4-8h2.2c0.3,1.6,0.9,3.4,1.6,5.5c1.5-2.6,2.5-5,3.1-7.3c0.1-0.1,0.1-0.2,0-0.3c-0.1-0.1-0.2-0.1-0.3-0.1h-6.7
			l0.3-2H93c0.4,0,0.6,0.1,0.8,0.2c0.2,0.1,0.3,0.3,0.3,0.6C94.1,11.6,94,12.2,93.7,12.9z M104.4,16l-6,0.9c0,2.3,0.1,4.3,0.2,6
			c1.2-1.5,2.2-3.1,2.8-4.9h2.5c-0.2,0.6-0.5,1.4-0.8,2.2c-0.4,0.8-1,1.7-1.7,2.7c-0.7,1-1.4,1.9-2.3,2.8c0.2,0.9,0.4,1.9,0.7,3h3.4
			l-1,2.2h-4.6c-0.3-1-0.6-2-0.8-3.1c-2,1.5-4,2.5-5.8,3.2l0.7-3.1c0.8-0.3,1.6-0.7,2.4-1.2c0.8-0.4,1.5-0.9,2.2-1.4
			c-0.4-2.4-0.6-5.1-0.6-7.9l-3,0.4l0.4-2.4l2.7-0.3c0-0.5,0-1.5,0.1-3.1C96,10.4,96,9.3,96,8.7h2.7c-0.1,2.3-0.2,4.3-0.2,5.9
			l6.3-0.9L104.4,16z M103.6,13H101c-0.4-1.7-0.7-2.9-0.9-3.7h2.5C102.9,10.6,103.2,11.8,103.6,13z"/>
	</g>
	<g class="st2">
		<path class="st1" d="M111.3,34.4h-2.9l8.2-22.8h2.9L111.3,34.4z"/>
	</g>
	<g>
		<path d="M18.2,11c2.1,0,3.6,0.2,4.4,0.7c0.8,0.5,1.1,1.5,1.1,2.8c0,0.8-0.2,2-0.5,3.7l-2.1,12.7h-3.5l1.9-11.7
			c0.3-2,0.5-3.3,0.5-3.8s-0.1-0.9-0.3-1.1c-0.2-0.2-0.5-0.3-0.9-0.4h-3.6l-3,17H8.7l3.1-17H6.6l-3.1,17H0L3.5,11H18.2z"/>
		<path d="M34.2,16c1.5,0,2.6,0.2,3.2,0.6c0.6,0.5,0.9,1.2,0.9,2c0,0.3-0.1,1.2-0.3,2.7l-1.6,9.5h-7.9c-0.7,0-1.3-0.1-1.7-0.3
			c-0.5-0.1-1-0.4-1.2-0.8c-0.3-0.3-0.4-0.8-0.4-1.4c0-0.5,0.1-1.4,0.3-2.5l0.2-0.9c0.2-1,0.5-1.7,0.8-2.1c0.3-0.5,0.8-0.8,1.4-1
			c0.6-0.1,1.6-0.2,3.1-0.2h3.9c0.1-1,0.2-1.6,0.2-1.9c0-0.3-0.1-0.5-0.4-0.7c-0.3-0.1-0.8-0.2-1.4-0.2h-5.3L27.4,16L34.2,16
			L34.2,16z M29.4,28.2h4.2l0.8-4.2h-4.2c-0.3,0-0.6,0.1-0.9,0.2c-0.3,0.1-0.4,0.5-0.5,1.1l-0.1,0.5c-0.2,1-0.3,1.6-0.3,1.7
			C28.4,28,28.7,28.2,29.4,28.2L29.4,28.2z"/>
		<path d="M44.1,30.8c-1.6,0-2.8-0.3-3.6-0.8c-0.8-0.5-1.1-1.3-1.1-2.6c0-0.6,0.1-1.6,0.4-2.9l0.5-3.4c0.2-1.1,0.4-2,0.7-2.7
			c0.2-0.6,0.5-1.1,1-1.4c0.3-0.3,0.8-0.6,1.4-0.8c0.6-0.2,1.6-0.3,3-0.3h4.9l-1.1,2.7h-3.9c-1,0-1.6,0.1-1.9,0.4
			c-0.3,0.3-0.6,1-0.8,2L43,24.6c-0.2,1.2-0.3,1.9-0.3,2.3c0,0.5,0.2,0.9,0.5,1c0.3,0.2,1,0.3,1.8,0.3h4.6l-1.1,2.7L44.1,30.8
			L44.1,30.8z"/>
	</g>
	<g class="st2">
		<path class="st3" d="M131.2,27.1c-1.6,1.2-3.2,2.3-4.7,3.2l1.7-9.3h-2.1l0.2-1.6h4.1l-1.3,7.3l2.5-1.9L131.2,27.1z M130.8,18.6h-2
			l-0.9-3.7h1.9L130.8,18.6z M140.5,21.9h-3.8l-0.9,6.5h4.4l-0.2,1.7h-10.7l0.3-1.7h4l2-13.5h2l-0.7,5.4h3.8L140.5,21.9z"/>
		<path class="st3" d="M148.3,14.8c-0.4,1.5-1,2.8-1.7,3.9L145,30.3h-1.7l1.3-8.9c-0.4,0.4-1,0.8-1.7,1.3l0.4-2.5
			c0.4-0.3,0.7-0.7,1.1-1.2c0.4-0.5,0.7-1.1,1.1-1.9c0.4-0.8,0.7-1.5,0.9-2.3H148.3z M149,20h1.9c-0.9,3-1.9,5.8-3,8.5h-2
			C147.1,25.6,148.1,22.8,149,20z M154.3,17.5h4.3l-0.2,1.5h-4.3l-0.9,6.4h2L155,27h-2l-0.5,3.1h-2L151,27h-2l0.3-1.5h2l0.9-6.4
			h-4.4l0.3-1.5h4.4l0.5-2.9h1.9L154.3,17.5z M155,20h1.8c0.2,3.1,0.5,6,0.9,8.5h-2c-0.1-0.9-0.2-2.1-0.3-3.6
			C155.2,23.4,155.1,21.8,155,20z"/>
		<path class="st3" d="M174.6,17.7c0.4,0,0.7,0.1,0.9,0.3c0.1,0.2,0.2,0.5,0.1,0.9l-1.5,11.3h-4.1l-0.4-1.5h2.8l1.3-9.3
			c0-0.1-0.1-0.2-0.3-0.2h-4c-0.1,0.6-0.3,1.2-0.5,1.8h1.1c0.7,2,1.5,3.9,2.6,5.7h-2.1c-0.6-1.3-1.3-2.8-2-4.7
			c-0.4,0.9-0.9,1.7-1.3,2.6c-0.5,0.9-1,1.6-1.5,2.2h-2.7c0.7-0.7,1.3-1.4,2-2.2c0.6-0.8,1.2-1.6,1.6-2.5c0.4-0.9,0.7-1.8,0.9-2.8
			h-3.6l-1.5,11h-2l1.7-12.5h5.7c0.1-1.1,0.2-2.1,0.3-3h2c-0.1,1.2-0.3,2.2-0.4,3H174.6z"/>
		<path class="st3" d="M179.6,24.1h1.7c-0.9,2.4-1.8,4.4-2.6,6h-1.9C177.9,28.3,178.8,26.3,179.6,24.1z M181.6,22.8h-1.9l-1.3-3.7
			h1.6L181.6,22.8z M182.2,18.3h-1.8l-1.4-3.5h1.7L182.2,18.3z M184.8,21.8l0.3,1.3h2.7l-0.2,1.4h-4.1l-0.2,1.1h2.5
			c0.4,0,0.7,0.1,0.8,0.3c0.1,0.2,0.2,0.6,0.1,1.1l-0.4,3.3H184l-0.3-1.4h1.6l0.2-1.6c0-0.2,0-0.3-0.2-0.3h-2.2
			c-0.2,0.6-0.4,1.2-0.7,1.7s-0.5,1.1-0.8,1.6h-1.7c0.5-0.6,0.9-1.3,1.3-2c0.4-0.7,0.6-1.3,0.8-2c0.2-0.6,0.3-1.2,0.3-1.6h-1.7
			l0.1-1.4h2.9l-0.3-1.3H184.8z M183.5,21.9h-1.7l0.7-5.8h1.6c0.2-0.4,0.3-0.9,0.3-1.3h1.7l-0.5,1.3h1.1c0.3,0,0.6,0.1,0.8,0.2
			c0.2,0.1,0.2,0.6,0.1,1.3l-0.4,4.3H183.5z M183.2,19.7l-0.1,0.9h3.1l0.1-0.9H183.2z M186.3,17.4h-2.9l-0.1,1.1h3.1l0.1-0.9
			C186.5,17.5,186.4,17.4,186.3,17.4z M193.4,19.4h-1c-0.3,2.1-1,4.2-1.9,6.2l2,4.5h-1.7c-0.3-0.7-0.7-1.6-1.1-2.8
			c-0.7,1.4-1.2,2.3-1.5,2.8h-1.8c1-1.2,2-2.7,2.8-4.5c-0.5-1.4-0.8-2.5-0.9-3.4h1.3c0.1,0.5,0.2,1,0.4,1.6c0.3-0.7,0.5-1.5,0.7-2.2
			c0.2-0.8,0.3-1.5,0.4-2.2h-1.4l-0.9,2.4h-1.6c1.3-3.2,2.1-5.6,2.5-7.2h1.4l-0.9,3.2h3.5L193.4,19.4z"/>
		<path class="st3" d="M197,18.1c-0.3,1.9-0.7,3.6-1.1,5.1h-1.6c0.4-1.4,0.8-3.2,1.2-5.1H197z M197.9,14.7h1.7l-2.1,15.5h-1.8
			L197.9,14.7z M199.6,22.7c0-0.9-0.1-2.5-0.1-4.7h1.4c0.1,2.1,0.2,3.6,0.3,4.7H199.6z M206.3,19.3l-0.1,0.9h4.5l-0.2,1.3h-10.3
			l0.2-1.3h4l0.1-0.9h-3.2l0.1-1.2h3.3l0.1-0.8H201l0.2-1.3h3.7l0.2-1.3h1.8l-0.2,1.3h3.9l-0.2,1.3h-3.9l-0.1,0.8h3.4l-0.2,1.2
			H206.3z M208.4,22c0.3,0,0.5,0.1,0.6,0.2c0.1,0.1,0.1,0.4,0.1,0.7l-0.8,7.1h-2.8l-0.4-1.3h2l0.1-1.1h-5.4l-0.2,2.4h-1.4l0.9-8
			H208.4z M202,26.4h5.4l0.2-1h-5.4L202,26.4z M207.6,23.2h-5.2l-0.1,0.9h5.4l0.1-0.7C207.7,23.3,207.7,23.2,207.6,23.2z"/>
		<path class="st3" d="M213.2,23.1h1.4c-0.4,1.7-0.9,3.6-1.6,5.8h-1.5C212.2,26.9,212.7,25,213.2,23.1z M219,20.9l-0.3,1.3h-2.2
			l-0.9,7.8H214l1-7.8h-2.4l0.2-1.3h2.4l0.5-4.1l-2.4,0.2l0.2-1.5l6-0.8l-0.2,1.6l-2.1,0.3l-0.5,4.2H219z M214.9,17.5
			c0,0.9,0.1,1.9,0.2,2.9h-1.4l-0.2-2.9H214.9z M218,23.1c-0.1,2.1-0.1,4,0.1,5.8h-1.5l0.1-5.8H218z M218.3,20.4h-1.4
			c0.4-1,0.7-2,0.9-3h1.4C219,18.3,218.7,19.3,218.3,20.4z M228,15.8c0,0.4-0.1,0.8-0.4,1.1c-0.7,0.8-1.6,1.7-2.5,2.6
			c0.9,0.8,1.9,1.7,3,2.5h-2.7l-1.5-1.5c-0.8,0.6-1.5,1.1-2.2,1.5h-2.8c1.5-0.9,2.9-1.7,4-2.5c-0.8-0.8-1.5-1.7-2.1-2.7h1.9
			c0.3,0.5,0.8,1,1.4,1.6c0.7-0.6,1.2-1.3,1.7-1.9c0,0,0-0.1,0-0.1h-5.4l0.2-1.1h6.6c0.2,0,0.5,0,0.7,0.1
			C227.9,15.5,228,15.7,228,15.8z M220.3,23.3h2.3l0.2-1.4h1.6l-0.2,1.4l2.4,0.1l-0.2,1.5h-2.3l-0.2,1.3h3.2l-0.2,1.5h-3.2l-0.2,2.5
			h-1.6l0.3-2.5H219l0.2-1.5h3.1l0.1-1.3H220L220.3,23.3z"/>
		<path class="st3" d="M236.1,20c0.4,0,0.7,0.1,0.8,0.2c0.1,0.2,0.1,0.4,0,0.8l-1.6,9h-3.1l-0.4-1.4h1.8l1.3-6.9c0,0,0-0.1,0-0.2
			c0,0-0.1-0.1-0.2-0.1h-0.9l-0.1,0.6c-1.4,4.4-2.4,7.1-2.9,8.1h-2.2c1.4-2.5,2.5-5.2,3.2-8.2l0.6-3.8h-1.7l0.3-1.4h2.9l-0.4-1.7
			h2.3c0.1,0.6,0.3,1.2,0.4,1.7h2.4l-0.3,1.4h-4l-0.3,2H236.1z M245.2,19.5h-1.4c-0.4,2.1-1.3,4.2-2.5,6.2l2.7,4.4h-2.3
			c-0.4-0.7-0.9-1.6-1.4-2.8c-0.9,1.3-1.6,2.3-2,2.8h-2.4c1.4-1.2,2.6-2.7,3.7-4.5c-0.6-1.4-1-2.5-1.2-3.4h1.7
			c0.1,0.4,0.3,1,0.5,1.6c0.3-0.7,0.7-1.5,0.9-2.2c0.2-0.8,0.4-1.5,0.5-2.2h-1.9l-1.2,2.4h-2.1c1.7-3.2,2.8-5.6,3.3-7.1h1.9
			l-1.2,3.2h4.6L245.2,19.5z"/>
		<path class="st3" d="M247.9,30.3l0.5-2.4h2.4l-0.4,2.4H247.9z M248.8,26.7l1.5-9.4h2.2l-1.8,9.4H248.8z"/>
	</g>
</g>
</svg>
