<?xml version="1.0" encoding="utf-8"?>
<!-- Generator: Adobe Illustrator 27.5.0, SVG Export Plug-In . SVG Version: 6.00 Build 0)  -->
<svg version="1.1" id="_图层_2" xmlns="http://www.w3.org/2000/svg" xmlns:xlink="http://www.w3.org/1999/xlink" x="0px" y="0px"
	 viewBox="0 0 347 31.9" style="enable-background:new 0 0 347 31.9;" xml:space="preserve">
<style type="text/css">
	.st0{fill:#1BFE02;}
	.st1{fill:#0000FF;}
	.st2{enable-background:new    ;}
	.st3{fill:#4C4C4C;}
</style>
<g id="_图层_1-2">
	<ellipse transform="matrix(0.9848 -0.1738 0.1738 0.9848 -3.4109 8.1671)" class="st0" cx="44.9" cy="23.6" rx="4.4" ry="6.3"/>
	<ellipse transform="matrix(0.9182 -0.3962 0.3962 0.9182 -7.6197 14.3607)" class="st1" cx="31" cy="25.6" rx="4.2" ry="3.6"/>
	<g class="st2">
		<path class="st1" d="M72.5,10.4h8.6l-0.4,2.3H62.9c-0.2,3.1-0.4,5.7-0.8,7.9c-0.4,3.5-1.3,6.8-2.7,10h-3.1
			c1.5-3.4,2.6-6.8,3.1-10.2c0.5-3.3,0.8-6.7,0.9-10h8.9l-0.5-1.9h3.2C72.2,9.4,72.4,10,72.5,10.4z M77.5,15.3h2.9
			c-0.5,1.3-1.2,3.2-2.1,5.5c-1,2.3-2.1,4.8-3.4,7.5h4.4l-0.4,2.3H61.1l0.4-2.3h10.4c0.8-1.5,1.7-3.4,2.8-5.9
			C75.7,20.1,76.6,17.7,77.5,15.3z M66.4,15.3c0.4,3.6,0.9,7.2,1.5,10.8h-2.9c-0.6-3.7-1-7.3-1.3-10.8H66.4z M72.3,14.7
			c0.1,3.5,0.4,7,0.8,10.6h-2.9c-0.3-3.7-0.4-7.2-0.5-10.6H72.3z"/>
		<path class="st1" d="M103.3,8.9c0.6,0,1,0.1,1.3,0.2c0.3,0.2,0.3,0.6,0.2,1.3l-2.8,19.7h-5.3l-0.7-2.2h3.4l0.7-4.6h-5.4l-1,6.8H91
			l1-6.8h-5.8c-0.6,2.5-1.2,4.8-1.8,6.8h-3.1c1.2-3.5,2.1-6.9,2.8-10.3c0.7-3.4,1.2-7,1.6-11H103.3z M86.7,21.2h5.6l0.6-4h-5.4
			L86.7,21.2z M93.7,11.1h-5.4L87.8,15h5.4L93.7,11.1z M95.1,21.2h5.4l0.7-4h-5.5L95.1,21.2z M101.9,11.9c0.1-0.3,0.1-0.4,0-0.6
			c-0.1-0.1-0.3-0.2-0.7-0.2h-4.8L95.9,15h5.5L101.9,11.9z"/>
	</g>
	<g class="st2">
		<path class="st1" d="M111.3,34.4h-2.9l8.2-22.8h2.9L111.3,34.4z"/>
	</g>
	<g>
		<path d="M18.2,11c2.1,0,3.6,0.2,4.4,0.7c0.8,0.5,1.1,1.5,1.1,2.8c0,0.8-0.2,2-0.5,3.7l-2.1,12.7h-3.5l1.9-11.7
			c0.3-2,0.5-3.3,0.5-3.8s-0.1-0.9-0.3-1.1c-0.2-0.2-0.5-0.3-0.9-0.4h-3.6l-3,17H8.7l3.1-17H6.6l-3.1,17H0L3.5,11H18.2z"/>
		<path d="M34.2,16c1.5,0,2.6,0.2,3.2,0.6c0.6,0.5,0.9,1.2,0.9,2c0,0.3-0.1,1.2-0.3,2.7l-1.6,9.5h-7.9c-0.7,0-1.3-0.1-1.7-0.3
			c-0.5-0.1-1-0.4-1.2-0.8c-0.3-0.3-0.4-0.8-0.4-1.4c0-0.5,0.1-1.4,0.3-2.5l0.2-0.9c0.2-1,0.5-1.7,0.8-2.1c0.3-0.5,0.8-0.8,1.4-1
			c0.6-0.1,1.6-0.2,3.1-0.2h3.9c0.1-1,0.2-1.6,0.2-1.9c0-0.3-0.1-0.5-0.4-0.7c-0.3-0.1-0.8-0.2-1.4-0.2h-5.3L27.4,16L34.2,16
			L34.2,16z M29.4,28.2h4.2l0.8-4.2h-4.2c-0.3,0-0.6,0.1-0.9,0.2c-0.3,0.1-0.4,0.5-0.5,1.1l-0.1,0.5c-0.2,1-0.3,1.6-0.3,1.7
			C28.4,28,28.7,28.2,29.4,28.2L29.4,28.2z"/>
		<path d="M44.1,30.8c-1.6,0-2.8-0.3-3.6-0.8c-0.8-0.5-1.1-1.3-1.1-2.6c0-0.6,0.1-1.6,0.4-2.9l0.5-3.4c0.2-1.1,0.4-2,0.7-2.7
			c0.2-0.6,0.5-1.1,1-1.4c0.3-0.3,0.8-0.6,1.4-0.8c0.6-0.2,1.6-0.3,3-0.3h4.9l-1.1,2.7h-3.9c-1,0-1.6,0.1-1.9,0.4
			c-0.3,0.3-0.6,1-0.8,2L43,24.6c-0.2,1.2-0.3,1.9-0.3,2.3c0,0.5,0.2,0.9,0.5,1c0.3,0.2,1,0.3,1.8,0.3h4.6l-1.1,2.7L44.1,30.8
			L44.1,30.8z"/>
	</g>
	<g class="st2">
		<path class="st3" d="M131.2,28.1c-1.6,1.2-3.2,2.3-4.7,3.2l1.7-9.3h-2.1l0.2-1.6h4.1l-1.3,7.3l2.5-1.9L131.2,28.1z M130.8,19.6h-2
			l-0.9-3.7h1.9L130.8,19.6z M140.5,22.9h-3.8l-0.9,6.5h4.4l-0.2,1.7h-10.7l0.3-1.7h4l2-13.5h2l-0.7,5.4h3.8L140.5,22.9z"/>
		<path class="st3" d="M154.4,17.2c1.4,0,2.4,0.2,2.9,0.5c0.5,0.4,0.7,1,0.7,1.8c0,0.5-0.1,1.3-0.3,2.4l-1.4,8.4H154l1.3-7.7
			c0.2-1.3,0.3-2.2,0.3-2.5c0-0.3-0.1-0.6-0.2-0.7c-0.1-0.1-0.3-0.2-0.6-0.3c-0.3,0-0.7,0-1,0h-1.3l-2,11.2h-2.4l2-11.2h-3.4
			l-2,11.2h-2.3l2.3-13.1H154.4z"/>
		<path class="st3" d="M164.9,20.5c1,0,1.7,0.1,2.1,0.4c0.4,0.3,0.6,0.8,0.6,1.3c0,0.2-0.1,0.8-0.2,1.8l-1.1,6.3h-5.2
			c-0.4,0-0.8-0.1-1.1-0.2c-0.4-0.1-0.6-0.3-0.8-0.5c-0.2-0.2-0.3-0.5-0.3-0.9c0-0.4,0.1-0.9,0.2-1.6l0.1-0.6
			c0.1-0.6,0.3-1.1,0.5-1.4c0.2-0.3,0.5-0.5,0.9-0.7c0.4-0.1,1.1-0.1,2-0.1h2.6c0.1-0.6,0.1-1.1,0.1-1.3c0-0.2-0.1-0.3-0.3-0.5
			c-0.2-0.1-0.5-0.1-0.9-0.1h-3.5l-0.3-1.8H164.9z M161.7,28.5h2.8l0.5-2.8h-2.8c-0.2,0-0.4,0-0.6,0.1c-0.2,0.1-0.3,0.3-0.3,0.7
			l-0.1,0.3c-0.1,0.7-0.2,1.1-0.2,1.1C161.1,28.4,161.3,28.5,161.7,28.5z"/>
		<path class="st3" d="M171.4,30.3c-1.1,0-1.9-0.2-2.4-0.5c-0.5-0.3-0.7-0.9-0.7-1.7c0-0.4,0.1-1,0.3-1.9l0.3-2.2
			c0.1-0.7,0.3-1.3,0.5-1.8c0.1-0.4,0.4-0.7,0.7-0.9c0.2-0.2,0.5-0.4,0.9-0.5c0.4-0.1,1.1-0.2,2-0.2h3.2l-0.7,1.8h-2.6
			c-0.6,0-1.1,0.1-1.3,0.3c-0.2,0.2-0.4,0.7-0.5,1.3l-0.4,2.3c-0.1,0.8-0.2,1.3-0.2,1.5c0,0.4,0.1,0.6,0.3,0.7
			c0.2,0.1,0.6,0.2,1.2,0.2h3l-0.7,1.8H171.4z"/>
		<path class="st3" d="M192.8,20.6h-5.6l-0.5,3.4h5.1l-0.3,1.5h-5.1l-0.5,4h6.5l-0.3,1.6h-15.2l0.3-1.6h6.5l0.5-4h-5.1l0.2-1.5h5.1
			l0.5-3.4h-3.5c-0.8,1-2,2-3.4,3l0.3-2.6c0.7-0.5,1.3-1.2,1.8-2c0.5-0.7,0.9-1.5,1.2-2.4h2.1c-0.3,0.9-0.7,1.6-1,2.4h2.7l0.5-3.2
			h2.1l-0.5,3.2h5.7L192.8,20.6z"/>
		<path class="st3" d="M208.1,19.2c-0.6,1.1-1.3,2.1-1.9,3h4.1l-0.3,1.5h-11.7c-0.4,2.4-1.1,4.9-2.1,7.4h-2.2c1.4-3.3,2.2-6.3,2.5-9
			h7.5c0.7-1.1,1.2-2.1,1.7-3H208.1z M210.6,17.2l-0.3,1.6h-14.1l0.2-1.6h5.9c-0.3-0.6-0.4-1.1-0.5-1.5h2.3c0.1,0.3,0.3,0.8,0.6,1.5
			H210.6z M200.1,21.8c-0.4-0.8-0.8-1.6-1.3-2.6h2c0.4,0.8,0.9,1.7,1.5,2.6H200.1z"/>
		<path class="st3" d="M226.7,18.7c0.3,0,0.5,0.1,0.6,0.3c0.1,0.2,0.2,0.5,0.1,0.9l-1.5,11.3h-5.4l-0.5-1.7h4l1.3-8.8
			c0-0.2-0.1-0.3-0.3-0.3h-4.2c-0.4,2-1.1,3.9-2.2,5.8c-1.1,1.9-2.5,3.6-4.2,5.1h-3c4.1-3.2,6.5-6.8,7.3-10.8h-4.5l-0.4-1.6h5.2
			c0.2-1.2,0.3-2.2,0.3-3h2.1l-0.3,3H226.7z"/>
		<path class="st3" d="M232.4,24.8h0.9c0.2,2,0.4,4,0.8,6.2h-1.6c-0.2-1.8-0.4-3.5-0.5-5.1c-0.6,2.1-1.3,3.8-2.1,5.1h-1.8
			c0.7-1,1.3-2.2,1.9-3.5c0.5-1.3,1-2.6,1.3-4c0.2-0.8,0.4-1.7,0.5-2.9c0.2-1.2,0.3-2.9,0.3-5.1h1.5c-0.1,2-0.3,3.7-0.5,5.2
			C233,22.2,232.7,23.6,232.4,24.8z M231.3,17.8l-0.1,5.3H230c0-0.1,0-0.5,0-0.9c0-0.5,0-1.2,0-2.2s0-1.7,0-2.1H231.3z M234.3,17.8
			h1.4c-0.4,2-0.9,3.7-1.4,5.3H233C233.6,21,234,19.2,234.3,17.8z M244.9,24l-0.1,1.3h-2.6c0.3,0.4,0.7,0.8,1.1,1.1
			c0.4,0.3,0.9,0.6,1.4,0.8l-0.5,1.5c-1.5-0.9-2.6-2-3.4-3.4H238c-0.5,0.8-1.1,1.5-1.9,2.2c-0.8,0.6-1.6,1.1-2.5,1.3l0.4-1.6
			c0.3-0.1,0.7-0.2,1-0.5c0.3-0.2,0.7-0.5,0.9-0.7c0.3-0.2,0.4-0.4,0.5-0.6h-2.3l0.1-1.3h2.6l0.2-1h-2.2l0.1-1.3h2.2l0.2-1.4h1.3
			l-0.2,1.4h2.4l0.2-1.4h1.3l-0.2,1.4h2.2l-0.1,1.3h-2.2l-0.1,1H244.9z M236,30.5h-1.7l1.8-1.8h1.8L236,30.5z M244.3,23.1h-9.4
			l0.2-1.5h9.4L244.3,23.1z M237.9,28h-1.7c-0.3-0.4-0.5-1-0.8-1.7h1.5C237.2,27,237.6,27.5,237.9,28z M244.6,17.1l-0.6,4.1h-8.6
			l1-5.3h7c0.6,0,1,0.1,1.1,0.2C244.7,16.3,244.7,16.6,244.6,17.1z M240.3,25.9l-1,5.6h-2.9l-0.4-1h1.8l0.8-4.6H240.3z M243.1,21
			h-6.7l0.2-1.3h6.7L243.1,21z M243.3,19.1h-6.7l0.2-1.3h6.7L243.3,19.1z M237.1,20h5.5l0.2-1h-5.5L237.1,20z M243.9,17.2h-6.7
			l0.2-1.3h6.7L243.9,17.2z M242.3,16.9h-4.6l-0.2,1h5.5l0.1-0.5c0.1-0.2,0.1-0.3,0-0.4C243,16.9,242.8,16.9,242.3,16.9z M238.4,23
			l-0.2,1h2.4l0.2-1H238.4z M240,28.6h1.6l1.3,2.1h-1.8C240.7,30.2,240.4,29.5,240,28.6z M240.2,28l1.5-1.6h1.6
			c-0.4,0.6-0.9,1.1-1.4,1.6H240.2z"/>
		<path class="st3" d="M247.5,21.2h1.2c-0.6,3.3-1.1,6.1-1.7,8.3h-1.3C246.4,26.6,247,23.8,247.5,21.2z M252.1,19.9h-1.6l-1.3,11.3
			h-1.4l1.3-11.3h-1.9l0.2-1.4h1.9l0.3-2.8h1.4l-0.3,2.8h1.6L252.1,19.9z M250.6,21.2h1.2l-0.4,7.1h-1.2L250.6,21.2z M256.4,15.9
			c0.4,0,0.6,0.1,0.8,0.2s0.2,0.4,0.1,0.8l-1.9,14.2h-1.5l0.8-5.4h-1.3c-0.3,1.9-0.6,3.7-1.1,5.4H251c0.5-1.5,0.8-3.3,1.1-5.5
			l1.4-9.8H256.4z M253.7,24.3h1.2l0.4-2.8h-1.2L253.7,24.3z M255.9,17.7c0,0,0-0.1,0-0.2c0-0.1-0.1-0.1-0.3-0.1h-0.9l-0.4,2.7h1.2
			L255.9,17.7z M261.5,15.9c0.4,0,0.7,0.1,0.8,0.2c0.2,0.1,0.2,0.4,0.1,0.8l-2,14.2h-1.6l0.8-5.4h-1.3c-0.3,1.9-0.7,3.7-1.2,5.4
			h-1.5c0.5-1.5,0.9-3.3,1.2-5.5l1.5-9.8H261.5z M258.7,24.3h1.3l0.4-2.8h-1.3L258.7,24.3z M261,17.7c0,0,0-0.1,0-0.2
			c0-0.1-0.1-0.1-0.3-0.1h-1l-0.4,2.7h1.3L261,17.7z"/>
		<path class="st3" d="M265,31.3l0.5-2.4h2.4l-0.4,2.4H265z M265.9,27.7l1.5-9.4h2.2l-1.8,9.4H265.9z"/>
	</g>
</g>
</svg>
