<?xml version="1.0" encoding="utf-8"?>
<!-- Generator: Adobe Illustrator 27.5.0, SVG Export Plug-In . SVG Version: 6.00 Build 0)  -->
<svg version="1.1" id="图层_1" xmlns="http://www.w3.org/2000/svg" xmlns:xlink="http://www.w3.org/1999/xlink" x="0px" y="0px"
	 viewBox="0 0 210 54" style="enable-background:new 0 0 210 54;" xml:space="preserve">
<style type="text/css">
	.st0{fill:#4D4D4D;}
	.st1{fill:#FFFF00;}
	.st2{fill:#FFFFFF;}
</style>
<g>
	<path class="st0" d="M81.5,53H11.1c-4.9,0-8.7-4.2-8.2-9.1L6.3,9.5c0.4-4.2,4-7.5,8.2-7.5h70.4c4.9,0,8.7,4.2,8.2,9.1l-3.4,34.4
		C89.3,49.8,85.8,53,81.5,53z"/>
</g>
<path class="st1" d="M33.5,19.6c-2.6,12.3-4.9,20.2-20.3,23.8c-0.2-1.1-1-2.7-1.7-3.6c14.1-3,15.4-9.3,17.6-20.2H33.5z"/>
<path class="st1" d="M42.8,30.9l-0.3,1.5c-0.2,1.1-1.2,1.9-2.3,1.9h-28l0.6-3.5H42.8z"/>
<path class="st2" d="M45.4,14.3L44,22.2h-4.3l0.7-4.1H19.5l-0.7,4.1h-4.1l0.8-4.5c0.3-2,2.1-3.4,4.1-3.4H45.4z"/>
<path class="st2" d="M18.5,24c1.7,0.8,3.7,2.3,4.7,3.4l-3,3.1c-0.3-0.5-0.9-1-1.5-1.5C17.2,27.7,17.1,25.4,18.5,24L18.5,24z"/>
<path class="st2" d="M23,18.9c1.6,0.9,3.6,2.4,4.5,3.6l-3.1,3c-0.3-0.5-0.9-1.1-1.5-1.7c-1.4-1.3-1.4-3.4,0-4.6L23,18.9z"/>
<path class="st2" d="M30,35c3.9,1.2,8,3,10.6,4.5c0.4,0.2,0.4,0.7,0.1,1.1l-2.5,2.7c-2.3-1.8-6.5-3.9-10.7-5.2L30,35z"/>
<path class="st2" d="M32.6,11.1c0.6,1.4,1.2,3.1,1.3,4.2l-4.7,1.4c-0.1-1.1-0.5-2.8-1.1-4.3c-0.1-0.3,0.1-0.6,0.4-0.7l3.3-1
	C32.1,10.7,32.4,10.8,32.6,11.1z"/>
<path class="st1" d="M58.2,32L58.2,32c-1.3,2.6-2.7,5.3-4.2,7.9c-1,1.8-3.3,2.3-5,1.3L48.9,41c1.3-2,3.1-4.9,4.7-7.9
	C54.5,31.4,56.7,30.9,58.2,32z"/>
<path class="st1" d="M54.2,20.6c0.9,0.5,2,1.1,3.1,1.8c1.2,0.7,1.4,2.3,0.4,3.3l-1.4,1.5c-0.4-0.4-1-0.9-1.7-1.4
	C53,24.6,52.8,22.1,54.2,20.6L54.2,20.6z"/>
<path class="st1" d="M57.3,11.4c0.4,0.2,0.8,0.4,1.2,0.7c2.2,1.3,2.6,4.2,0.9,6.1l0,0c-0.6-0.6-1.7-1.5-2.8-2.3
	c-1.1-0.8-1.3-2.4-0.3-3.4L57.3,11.4z"/>
<path class="st2" d="M68.9,17.8c0.3,0,0.5,0.3,0.4,0.5L67.1,31c-0.7,3.9-2.2,8.3-7,11.2c-1.2,0.7-2.7,0.3-3.4-0.8c0,0,0,0,0,0
	c-0.2-0.2-0.1-0.5,0.2-0.7c5.4-2.4,6.6-6,7.2-9.8l2.3-12.8c0-0.2,0.2-0.4,0.4-0.4H68.9z"/>
<polygon class="st2" points="75.1,12.9 71.1,35.4 67.9,35.4 71.3,15.9 65.4,15.9 61.9,35.6 58.8,35.6 62.8,12.9 "/>
<path class="st2" d="M70.2,38.8c0.7,1,1.2,2,1.6,2.7l-2.9,1.7c-0.6-1.5-2-3.8-3.3-5.5l0,0C67.2,36.8,69.2,37.3,70.2,38.8z"/>
<path class="st2" d="M84.9,11.6L80,39.3c-0.3,1.9-0.9,2.8-2,3.4c-1.2,0.6-2.9,0.7-5.4,0.7c0-0.9-0.2-2.4-0.4-3.4
	c1.7,0.1,3.3,0,3.8,0c0.5,0,0.7-0.2,0.8-0.7l4.3-24.4C81.4,13,83,11.6,84.9,11.6L84.9,11.6z"/>
<path class="st1" d="M79.3,16.1l-3.2,18.2c-0.1,0.7-0.8,1.3-1.5,1.3l0,0c-1,0-1.7-0.9-1.5-1.8l3.2-18.2c0.1-0.7,0.8-1.3,1.5-1.3l0,0
	C78.7,14.3,79.4,15.1,79.3,16.1z"/>
<g>
	<path class="st0" d="M184.3,52.8h-70.4c-4.9,0-8.7-4.2-8.2-9.1L109,9.3c0.4-4.2,4-7.5,8.2-7.5h70.4c4.9,0,8.7,4.2,8.2,9.1
		l-3.4,34.4C192.1,49.6,188.5,52.8,184.3,52.8z"/>
</g>
<path class="st1" d="M122.4,30.9c-0.8,2.7-1.8,5.7-2.9,9c-0.8,2.2-3.1,3.4-5.3,2.8h0c0.8-1.9,1.6-4,2.4-6.4c0.3-0.9,0.6-1.8,0.9-2.7
	C118.2,31.6,120.3,30.4,122.4,30.9L122.4,30.9z"/>
<path class="st1" d="M120.8,27.8c-0.6-0.7-1.5-1.5-2.5-2.5c-0.2-0.2-0.4-0.4-0.6-0.6c-1.1-1-1.3-2.8-0.3-4l0.8-1
	c0.9,0.7,1.9,1.5,3,2.4l0,0c1.4,1.2,1.6,3.3,0.4,4.7L120.8,27.8z"/>
<path class="st1" d="M120.4,12c0.7,0.6,1.6,1.3,2.6,2.2c0.1,0.1,0.3,0.2,0.4,0.3c1.3,1.1,1.4,3,0.4,4.3l-1,1.2
	c-0.6-0.7-1.4-1.5-2.5-2.5c-0.4-0.3-0.7-0.7-1-0.9c-0.9-0.8-0.9-2.1-0.2-3L120.4,12z"/>
<path class="st2" d="M144.9,44.4c-1.6-2-2.9-4-3.9-6c-1.3,1.9-2.9,3.9-5,6.1l-2.1-2.8c-0.3,0.7-0.8,1.2-1.4,1.5
	c-0.6,0.3-1.4,0.5-2.3,0.5c-1.2,0-2.1,0-2.7-0.1l-0.4-3.1c0.8,0.1,1.6,0.2,2.4,0.2c0.5,0,0.9-0.1,1.1-0.3c0.2-0.2,0.4-0.6,0.5-1.2
	c0.2-0.9,0.4-1.7,0.5-2.4h-3.6c-0.4,1.5-1,2.8-1.7,3.9c-0.7,1.2-1.7,2.5-3.1,4l-2.8-2.3c1.1-1.2,1.9-2.2,2.5-3
	c0.6-0.9,1.1-1.8,1.4-2.8c0.3-1,0.7-2.2,1-3.7c0-0.2,0.1-0.4,0.1-0.8h-2.4l0.3-3.2h5.6c-0.1-0.8-0.2-1.6-0.3-2.3h-3.7l1.1-12.5h3.3
	c0.4-0.9,0.6-2.3,0.7-3.3c0.1-0.3,0.4-0.5,0.7-0.4l3.3,1.4c-0.1,0.3-0.3,0.7-0.5,1.2l-0.5,1.1h4.2l-0.8,9.3c0.9-1.8,1.7-3.7,2.5-5.9
	c0.6-1.5,1-3,1.4-4.3c0.3-1.1,1.2-1.9,2.3-2.2l2.1-0.6c0.2-0.1,0.4,0.1,0.3,0.3c-0.4,1.5-1.3,4.4-1.9,6.2l7.7-0.5
	c0.5,0,0.9,0.5,0.6,1l-1.6,2.4c-0.5,0.7-1.3,1.1-2.1,1.1l0,0c-0.5,2.9-1.1,5.4-1.8,7.7c-0.7,2.2-1.5,4.3-2.5,6.2
	c1.1,2.3,2.7,4.5,4.7,6.7L144.9,44.4z M133.2,21.7h-4.8l-0.2,1.7h4.8L133.2,21.7z M139.4,34.6c-0.7-2.1-1.1-4.5-1.4-7.2l0,0.1
	l-1.8-1.5l0,0.4h-3.9l0.4,2.3h4.3l-0.3,3.2h-7.7l-0.1,0.8l-0.1,0.8h6.9c-0.2,2-0.5,3.9-0.9,5.9l-0.3,1.3
	C136.4,38.5,138.1,36.5,139.4,34.6z M128.7,18.7h4.8l0.2-1.8h-4.8L128.7,18.7z M141.4,20.6l-0.7,1.5c0.2,3.2,0.5,5.8,1,7.9
	c1-2.4,1.8-5.6,2.4-9.4H141.4z"/>
<path class="st1" d="M152.9,42.9c0.4-0.9,1.3-3,2.6-6.2c0.3-0.8,0.6-1.5,0.9-2.1c0.9-2.3,3.4-3.5,5.8-2.9v0c-0.4,1-1.2,3.1-2.5,6.3
	c-0.3,0.7-0.6,1.4-0.8,2C157.9,42.4,155.4,43.6,152.9,42.9L152.9,42.9z"/>
<path class="st1" d="M159.8,28.7c-1.1-1-2.1-1.8-2.9-2.5c-1.9-1.6-2.2-4.4-0.6-6.3v0c0.8,0.6,1.8,1.3,2.7,2.1
	C161,23.6,161.4,26.6,159.8,28.7L159.8,28.7z"/>
<path class="st1" d="M161.9,20c-0.7-0.6-1.7-1.5-2.9-2.4l0,0c-1.6-1.3-1.9-3.7-0.7-5.4l0.4-0.5c0.7,0.5,1.5,1.1,2.4,1.8
	C163.1,15.1,163.4,18,161.9,20L161.9,20z"/>
<path class="st2" d="M182.6,25.2H177l-0.3,4h6.3c0.8,0,1.4,0.6,1.3,1.4l-1.2,13.8h-4.5l0.2-1.7h-10.8l-0.2,1.7h-4.4l1.1-12.6
	c0.1-1.5,1.4-2.6,2.9-2.6h5l0.3-4h-9.1v0c0.2-2.2,2.1-4,4.3-4h5.1l0.3-3.9c-2.4,0.2-5.7,0.5-8,0.6c-0.6,0-1-0.5-0.8-1.1l0.4-1
	c0.5-1.4,1.7-2.2,3-2.2c2.6-0.1,5.3-0.3,8.2-0.5c3.3-0.3,7.9-0.6,10.8-0.9c0.5-0.1,0.8,0.4,0.6,0.9l0,0c-1,1.9-2.8,3.2-4.9,3.4
	c-1.5,0.2-3.1,0.3-4.9,0.5l-0.4,4.3h9.6v0C186.8,23.5,184.9,25.2,182.6,25.2z M168.2,38.8H179l0.5-5.5h-10.8L168.2,38.8z"/>
<g>
</g>
<g>
</g>
<g>
</g>
<g>
</g>
<g>
</g>
<g>
</g>
<g>
</g>
<g>
</g>
<g>
</g>
<g>
</g>
<g>
</g>
<g>
</g>
<g>
</g>
<g>
</g>
<g>
</g>
</svg>
